<?xml version="1.0" encoding="UTF-8" standalone="no"?>
<!-- Created with Inkscape (http://www.inkscape.org/) -->

<svg
   xmlns:dc="http://purl.org/dc/elements/1.1/"
   xmlns:cc="http://creativecommons.org/ns#"
   xmlns:rdf="http://www.w3.org/1999/02/22-rdf-syntax-ns#"
   xmlns:svg="http://www.w3.org/2000/svg"
   xmlns="http://www.w3.org/2000/svg"
   xmlns:sodipodi="http://sodipodi.sourceforge.net/DTD/sodipodi-0.dtd"
   xmlns:inkscape="http://www.inkscape.org/namespaces/inkscape"
   id="svg2"
   version="1.1"
   inkscape:version="0.48.5 r10040"
   width="700"
   height="700"
   sodipodi:docname="perfectlysquarelogo.png">
  <metadata
     id="metadata8">
    <rdf:RDF>
      <cc:Work
         rdf:about="">
        <dc:format>image/svg+xml</dc:format>
        <dc:type
           rdf:resource="http://purl.org/dc/dcmitype/StillImage" />
        <dc:title></dc:title>
      </cc:Work>
    </rdf:RDF>
  </metadata>
  <defs
     id="defs6" />
  <sodipodi:namedview
     pagecolor="#ffffff"
     bordercolor="#666666"
     borderopacity="1"
     objecttolerance="10"
     gridtolerance="10"
     guidetolerance="10"
     inkscape:pageopacity="0"
     inkscape:pageshadow="2"
     inkscape:window-width="1920"
     inkscape:window-height="1017"
     id="namedview4"
     showgrid="false"
     inkscape:zoom="0.61564939"
     inkscape:cx="281.54606"
     inkscape:cy="390.21697"
     inkscape:window-x="1912"
     inkscape:window-y="-8"
     inkscape:window-maximized="1"
     inkscape:current-layer="svg2" />
  <path
     style="fill:#04a327;fill-opacity:1;fill-rule:nonzero;stroke:none"
     d="m 234.07874,156.02968 0,154.58541 76.5626,0 0,77.79758 -76.5626,0 0,154.63352 78.33423,0 0,-154.63352 75.22194,0 0,154.63352 78.28634,0 0,-154.63352 -76.94566,0 0,-77.79758 76.0838,0 0,-154.58541 -78.28637,0 0,154.58541 -74.36005,0 0,-154.58541 -78.33423,0 z"
     id="rect2991"
     inkscape:connector-curvature="0" />
  <path
     style="fill:#8f0c0c;fill-opacity:1;fill-rule:nonzero;stroke:none"
     d="m 2.7305861,1.8989568 0,232.1201132 152.4147639,0 0,155.1649 78.93339,0 0,-155.1649 0,-232.1201132 -231.3481539,0 z m 77.0034749,77.1964662 77.292949,0 0,77.341207 -77.292949,0 0,-77.341207 z"
     id="rect2987"
     inkscape:connector-curvature="0" />
  <path
     inkscape:connector-curvature="0"
     style="fill:#1064ce;fill-opacity:1;fill-rule:nonzero;stroke:none"
     d="m 465.92125,310.81602 0,232.12013 152.41477,0 0,155.16489 78.93339,0 0,-155.16489 0,-232.12013 -231.34816,0 z m 77.00347,77.19646 77.29296,0 0,77.34122 -77.29296,0 0,-77.34122 z"
     id="rect2987-4" />
</svg>
